<?xml version="1.0" encoding="utf-8"?>
<!-- Generator: Adobe Illustrator 16.0.0, SVG Export Plug-In . SVG Version: 6.00 Build 0)  -->
<!DOCTYPE svg PUBLIC "-//W3C//DTD SVG 1.1//EN" "http://www.w3.org/Graphics/SVG/1.1/DTD/svg11.dtd">
<svg version="1.1" id="图层_1" xmlns="http://www.w3.org/2000/svg" xmlns:xlink="http://www.w3.org/1999/xlink" x="0px" y="0px"
	 width="600px" height="250px" viewBox="0 0 600 250" enable-background="new 0 0 600 250" xml:space="preserve">
<path fill="#F39800" d="M397.236,170.973c0,0,1.555,8.236-8.385,16.104c0.004-0.027,0.004-0.061,0.004-0.09
	c0.191-3.67,0-6.947-0.445-9.844c12.479-8.248,5.686-16.711,5.686-16.711s2.512,6.309-6.592,12.389
	c-1.088-3.98-2.625-7.047-4.104-9.277c4.072-2.586,5.656-5.396,5.195-7.26c-1.482-5.893-14.285-8.359-19.033-8.145
	c0,0-1.311-0.066-0.502,0.566c0.943,0.734,5.26,4.807,7.025,6.566c0.461,0.461,0.9-0.215,0.275-1.357
	c-0.652-1.221-0.906-2.111,1.047-1.992c1.307,0.098,7.48,0.656,9.238,3.367c1.564,2.426-0.666,4.559-4.748,6.264
	c-1.6-1.943-2.887-2.797-3.002-2.666c-0.461,0.15,0.27,1.197,1.346,3.307c-4,1.412-9.254,2.461-14.396,3.055
	c-2.357-11.277-4.576-19.219-5.48-20.004v-0.012c-0.031-0.043-0.088-0.066-0.162-0.066h-0.002
	c-1.313,0.082-10.043,7.561-14.648,18.799c-4.014-1.309-6.594-3.264-6.715-5.617c-0.211-3.873,5.727-9.008,12.775-11.242
	l-0.123-0.986c-12.254,3.137-21.117,10.143-20.391,15.775c0.145,1.092,0.775,2.105,1.809,3.018
	c-9.096,3.303-10.611,9.359-9.945,12.961c0.719,3.965,5.539,7.143,12.943,8.752c-5.832,2.91-6.639,8.883-4.635,11.828
	c2.961,4.361,12.322,6.463,23.615,5.512c3.246,2.482,6.314,4.033,6.652,3.623c0.482-0.318-0.82-1.879-2.758-4.061
	c3.076-0.449,6.26-1.092,9.459-1.979c1.527,5.176,2.805,8.375,3.35,8.564c0.516,0.352,5.48-1.725,9.256-5.869
	c3.67-4.023,5.809-7.336,7.023-11.799C401.064,182.389,397.236,170.973,397.236,170.973 M384.828,186.115
	c-0.115,1.391-0.313,2.74-0.586,4.061c-3.463,2-7.85,3.889-13.363,5.531c-0.012,0.006-0.02,0.006-0.029,0.014
	c-0.375-3.307-0.846-7-1.451-10.934c6.604-1.717,11.613-3.605,15.408-5.553C384.949,181.334,384.971,183.635,384.828,186.115
	 M347.754,178.986c-0.221-3.238,0.07-6.361,0.684-9.318c3.986,0.361,8.42,0.377,13.045-0.002c0.396,2.838,0.867,5.818,1.416,8.865
	c0.145,0.801,0.297,1.6,0.436,2.375c-5.281,0.744-10.629,0.756-15.389,0.166C347.879,180.406,347.814,179.719,347.754,178.986
	 M381.432,164.674c1.059,2.461,2.184,5.76,2.865,10.014c-3.73,1.908-8.803,3.723-15.668,5.234c-0.184-1.107-0.383-2.221-0.586-3.35
	c-0.469-2.592-0.941-5.1-1.418-7.502C373.029,168.121,377.91,166.496,381.432,164.674 M359.824,146.586
	c-0.262,2.91,0.041,10.045,1.131,19.064c-4.072,0.18-7.932-0.076-11.25-0.676C352.668,156.094,358.027,149.354,359.824,146.586
	 M332.258,171.959c0.063-2.016,1.258-4.256,2.338-5.865c2.238,1.301,5.418,2.318,9.248,2.977c-0.895,3.463-1.324,7.17-1.033,11.061
	C336.496,178.559,332.182,175.699,332.258,171.959 M336.07,191.977c-0.418-0.877-0.541-1.404-0.623-2.426
	c-0.111-1.141,0.449-2.863,0.473-2.926c2.41,0.525,5.074,0.889,7.988,1.055c1.051,3.746,2.799,7.346,4.719,9.918
	c0.113,0.156,0.229,0.313,0.332,0.477C342.414,197.369,337.586,195.197,336.07,191.977 M354.217,198.318
	c-0.512-0.631-1.029-1.256-1.502-1.887c-1.629-2.842-2.816-5.227-3.67-8.668c4.721-0.092,9.885-0.662,15.316-1.793
	c0.822,3.943,1.705,7.584,2.541,10.779C362.451,197.777,358.141,198.277,354.217,198.318 M378.32,203.219
	c-3.082,3.805-5.686,5.52-6.512,6.385c0.107-1.215-0.035-4.453-0.461-8.994c0.82-0.254,1.641-0.533,2.445-0.828
	c3.371-1.223,6.27-2.545,8.783-3.932C381.51,198.535,380.104,200.998,378.32,203.219"/>
<path fill-rule="evenodd" clip-rule="evenodd" fill="#004EA2" d="M586.922,237.361c-48.422-14.705-166.457-24.85-284.139-24.85
	c-117.697,0-235.743,10.145-284.155,24.85c70.637-7.184,180.945-11.572,284.155-11.572
	C405.971,225.789,516.285,230.178,586.922,237.361"/>
<polygon fill="#004EA2" points="50.435,149.57 72.566,149.57 71.85,186.268 89.564,149.57 111.588,149.57 96.483,209.842 
	82.772,209.842 94.289,163.914 72.111,209.842 59.656,209.842 60.542,163.914 49.033,209.842 35.329,209.842 "/>
<path fill="#004EA2" d="M143.211,199.822h-19.037l-5.268,10.02h-17.198l35.53-60.271h18.584l5.192,60.271h-17.61L143.211,199.822z
	 M142.916,186.785l-0.51-21.625l-11.375,21.625H142.916z"/>
<path fill="#004EA2" d="M181.506,149.57h27.964c6.099,0,10.265,1.607,12.489,4.828c2.227,3.207,2.601,7.791,1.11,13.727
	c-1.534,6.088-4.382,10.861-8.54,14.297c-4.166,3.439-9.636,5.152-16.404,5.152h-9.207l-5.582,22.268h-16.943L181.506,149.57z
	 M191.988,175.332h4.132c3.241,0,5.685-0.627,7.313-1.875c1.618-1.264,2.684-2.865,3.182-4.824c0.467-1.898,0.311-3.502-0.51-4.832
	c-0.801-1.314-2.775-1.982-5.932-1.982h-4.799L191.988,175.332z"/>
<polygon fill="#004EA2" points="246.382,149.57 262.359,149.57 259.751,183.115 276.566,149.57 292.406,149.57 292.462,183.35 
	306.719,149.57 322.631,149.57 295.496,209.842 278.966,209.842 278.914,171.896 259.878,209.842 243.388,209.842 "/>
<path fill="#004EA2" d="M398.178,209.842l15.107-60.271h28.057c5.193,0,9.041,0.494,11.549,1.475
	c2.494,0.988,4.256,2.816,5.264,5.492c1.021,2.668,1.053,5.91,0.096,9.738c-0.85,3.34-2.219,6.227-4.117,8.65
	c-1.895,2.422-4.15,4.391-6.793,5.891c-1.67,0.969-3.826,1.76-6.5,2.381c1.828,0.744,3.092,1.484,3.818,2.232
	c0.49,0.5,1.125,1.564,1.893,3.178c0.768,1.635,1.246,2.877,1.42,3.756l3.814,17.479h-19.029l-4.393-18.434
	c-0.531-2.389-1.16-3.93-1.879-4.65c-0.965-0.93-2.215-1.406-3.738-1.406h-1.473l-6.156,24.49H398.178z M424.135,173.908h7.053
	c0.764,0,2.314-0.273,4.639-0.832c1.17-0.242,2.225-0.871,3.199-1.885c0.938-1.023,1.59-2.182,1.908-3.49
	c0.492-1.953,0.316-3.439-0.541-4.479c-0.84-1.041-2.795-1.568-5.838-1.568h-7.348L424.135,173.908z"/>
<polygon fill="#004EA2" points="472.119,149.57 488.914,149.57 477.518,195.049 503.855,195.049 500.148,209.842 457.016,209.842 
	"/>
<path fill="#004EA2" d="M523.152,149.57h24.975c4.928,0,8.707,0.738,11.369,2.217c2.662,1.482,4.643,3.615,5.922,6.371
	c1.285,2.773,1.914,5.998,1.891,9.662c-0.039,3.68-0.564,7.566-1.596,11.676c-1.627,6.451-3.533,11.443-5.744,14.994
	c-2.215,3.555-4.797,6.523-7.744,8.922c-2.945,2.398-5.879,3.994-8.779,4.783c-3.955,1.1-7.434,1.645-10.426,1.645h-24.99
	L523.152,149.57z M536.51,163.252l-8.254,32.908h4.117c3.498,0,6.104-0.426,7.793-1.285c1.705-0.867,3.24-2.375,4.627-4.52
	c1.375-2.152,2.666-5.635,3.873-10.459c1.596-6.381,1.76-10.758,0.475-13.107c-1.291-2.367-4.092-3.537-8.451-3.537H536.51z"/>
<path fill="#F39800" d="M71.268,78.791c-0.277,0.422-1.07,0.847-1.242,1.24c-0.453,1.035,0.427,2.885,0.622,3.536
	c0.983,3.276,2.135,5.765,3.329,8.523c2.366,5.482,4.007,10.676,7.894,14.543c1.531,1.523,4.245,3.406,7.688,2.281
	c1.447-0.467,2.776-1.518,3.95-2.281c1.509-0.98,3.329-1.697,4.362-3.115c3.333-4.576,1.574-9.012-1.66-12.264
	C91.199,86.212,80.192,79.671,71.268,78.791 M79.377,66.734c2.195-0.73,4.809-1.818,7.274-2.075
	c0.304-1.092,1.354-4.419,0.419-5.826v-1.866c-1.316-0.35-2.634-0.69-3.951-1.04c-5.627-1.326-12.183,2.923-15.588,4.369
	c-1.687,0.706-4.253,0.649-5.817,1.659c-3.063-0.387-1.958-10.677-1.876-14.135c11.709,0.048,25.641-0.453,25.771-11.843h-1.242
	c3.24-7.99-3.977-11.76-9.771-13.093c-3.739-0.863-9.958,1.172-13.506,1.457v-1.039c-4.125,2.267-11.908,1.065-16.208-0.211
	c-1.541-0.456-3.257-0.379-4.364-1.244h-0.21c0.137,6.705,6.306,15.335,10.396,18.079c0.206,1.941,0.415,3.877,0.619,5.812
	c0.63,1.697,3.092,2.003,2.285,5.618c-2.174,9.763-5.613,20.213-19.115,16.421c-1.987-0.561-4.196-0.74-5.615-1.882
	c-0.722,0.276-0.722,0.638-1.246,1.045c-0.64,9.339,12.981,8.377,20.576,6.647c1.876,4.072-0.505,8.904-1.667,12.472
	c-3.01,9.299-4.892,19.895-14.543,22.44c-4.345,1.152-6.842-4.855-11.013-5.189c0,0-1.13-0.045-1.155,0.527
	c-0.024,0.572,0,1.287,0.311,2.004c0.309,0.715,0.595,1.096,0.93,1.598c0.021,0.031,0.057,0.051,0.083,0.076
	c0.693,0.986,2.79,2.303,3.571,3.066c4.411,4.32,10.189,10.4,17.663,4.996c3.074-2.236,4.821-5.834,6.853-9.154
	c2.744-4.475,4.862-10.016,6.653-15.379c0.413-1.727,0.831-3.461,1.249-5.192c1.196-3.674,2.335-8.155,2.696-12.472
	c4.8-2.04,9.929-3.922,14.967-5.604C76.331,67.427,77.852,67.081,79.377,66.734 M216.324,43.878
	c-6.021,1.72-10.18,5.093-15.386,7.478c-0.064,0.206-0.131,0.418-0.207,0.626c0.466,0.155,1.133,0.221,1.875,0.207v0.209
	c-0.878,0.553-2.242,0.985-3.121,1.658h-0.408c0.235-0.471,0.469-0.896,0.832-1.247v-0.412c-1.668-0.022-2.567,0.135-3.533,0.62
	v0.832h2.076v0.206c-0.971,0.484-1.939,0.971-2.908,1.453c-0.716-1.463-1.822-2.389-2.292-4.154
	c-0.804-3.14-0.415-13.036,0.212-16.003c0.143-1.865,0.278-3.74,0.414-5.608c0.26-1.049,0.955-2.84,1.041-3.737
	c0.1-1.083-1.231-2.832-0.416-4.16c-0.199-1.026-1.129-1.271-2.07-1.457c-0.468-0.158-0.84,0.263-1.455,0.417
	c-1.487,0.377-2.693-0.067-3.742,0.623c-1.005,0.665-1.596,2.132-2.699,2.697c-0.767,0.214-1.527,0.419-2.293,0.623
	c-0.871,3.904,1.276,6.317,2.081,9.772v4.152c0.669,2.974,0.005,6.623,0,9.769c0,2.02-0.852,9.273-0.623,9.771
	c-0.397,1.147-1.222,1.213-2.077,1.867h-1.454c-0.284-0.545-0.557-1.107-0.833-1.667c-0.882-1.306-2.227-2.299-3.123-3.53
	c-5.822-0.733-7.068,2.984-10.181,6.029v0.205h-0.206c-0.882-1.865-1.922-4.854-3.541-6.025c-1.822-1.323-4.791-1.643-5.606-3.948
	c-0.912-2.579,1.48-4.371,0.833-7.064c-0.638-2.616-2.287-5.316-3.743-7.273c-0.923-1.248-2.674-2.674-4.364-3.12
	c-1.179-0.142-2.352-0.273-3.53-0.409c-0.6-0.304-3.051-2.918-3.538-3.536c-0.425,0.085-0.397,0.046-0.624,0.208
	c-1.737,0.222-3.804,4.288-3.113,6.857c0.334,1.248,1.332,2.506,1.662,3.742c0.412,1.492,0.055,4.42-0.206,5.603
	c-0.999,4.521-0.274,9.08-1.873,12.893c-3.018,7.187-15.022,9.417-22.232,12.676c-0.304,1.954,1.598,2.959,2.904,3.943
	c3.119,2.351,6.257,5.857,10.392,7.071c3.988,1.162,6.302-0.716,8.518,2.491c0.084,0.142,0.062,1.079-0.206,1.456
	c0.052,3.346-7.909,8.329-11.844,6.653c0,0-2.437-1.715-3.678-0.568c-1.24,1.145-1.24,2.861-1.24,4.961s2.48,6.201,3.245,7.156
	c0.521,0.652,0.566,1.035,1.144,1.305c0.108,0.146,0.216,0.295,0.323,0.441c3.331,2.32,17.449,2.994,22.234,1.246
	c4.32-1.582,5.998-9.795,7.901-14.127c1.222-2.816,3.367-5.055,4.981-7.483c1.133-1.719,2.688-3.813,2.707-6.449
	c4.459,0.051,5.205,3.025,7.063,5.619c1.728,1.799,3.464,3.602,5.192,5.401c1.862,1.395,3.956,2.828,6.248,3.742
	c1.237,0.275,2.484,0.553,3.728,0.834c1.104-0.02,1.68,0.082,2.29,0.412c-0.733,2.1-6.24,4.338-8.52,5.195v1.041
	c3.056-0.152,8.194-0.475,10.804-1.457c1.508-0.572,2.905-2.082,4.567-2.494c1.504-0.375,6.021,0.936,7.478,1.246
	c2.242,0.486,3.926-1.008,5.827-1.043c1.07-0.012,1.325,0.867,2.073,1.043c0.688,0.172,7.16-1.314,7.693-1.662
	c1.104-0.594,1.104-2.916,2.072-3.738c-0.897-2.08-1.791-4.158-2.7-6.238c-1.527-2.244-10.852-5.093-14.756-5.189v-0.21
	c2.147-1.18,4.294-2.357,6.442-3.531c0.839-0.433,2.456-0.593,3.12-1.255c0.526-0.527,0.596-1.674,1.038-2.276
	c0.894-1.247,2.812-2.173,3.325-3.747c0.352-1.074-0.267-2.484,0.211-3.325c1.112-1.979,3.563-3.369,4.359-5.612
	c0.317-0.868-0.017-2.004,0.415-2.703c0.18-1.936,1.479-1.54,2.284-2.7c1.449-2.081,2.868-9.023,0.832-11.843
	C223.68,43.54,218.834,43.157,216.324,43.878 M161.877,76.502h-1.039c-0.02-0.529-0.026-0.773-0.207-1.04
	c-0.019-0.524-0.024-0.771-0.205-1.04c-0.613-0.41-2.354-0.238-3.331-0.206c1.634-3.952,6.323-4.198,8.319-7.065h1.04
	C166.374,71.561,163.561,73.619,161.877,76.502 M181.005,81.281c-0.269-0.11-0.633-0.249-0.832-0.422
	c-1.577-0.078-1.255-0.745-2.079-1.451c0.135-0.988,0.427-1.237,0.828-1.872c1.099,0.648,1.319,1.327,2.083,2.284V81.281z
	 M207.593,49.073c0.51,0.104,1.217,0.255,1.662,0.416c-0.699,0.673-1.967,0.794-2.696,1.457h-0.211
	C206.763,50.314,207.179,49.694,207.593,49.073 M204.475,50.734c0.429,0.082,0.409,0.05,0.625,0.21h0.412
	c-0.128,0.282-1.905,1.462-2.281,1.245C203.645,51.698,204.068,51.214,204.475,50.734 M199.078,82.738
	c-0.931-0.144-3.517,0.588-4.158,0.203c-0.59-0.021-0.892-0.08-1.243-0.203c-0.414-2.055,0.154-3.389,0.828-4.783
	c1.546,0.747,2.963,2.159,4.149,3.326c0.147,0.161,0.282,0.463,0.424,0.627V82.738z M207.804,66.529
	c-0.989,1.376-1.728,3.201-3.535,3.737c-2.978,1.989-8.171-2.665-9.764-3.737c0.022-0.768,0.091-1.844-0.204-2.287v-2.08
	l2.493-2.289c1.106-0.071,2.213-0.134,3.322-0.202c2.351-0.956,4.609-4.041,6.858-5.408c1.342-0.819,4.105-0.321,5.4-1.245
	c1.126,0.261,1.69,0.743,2.494,1.245C214.236,58.691,210.059,63.38,207.804,66.529 M326.463,85.229
	c-0.557-3.394-1.109-6.793-1.658-10.183c-2.291-8.203-4.965-16.286-7.277-24.312c-0.133-1.662-0.271-3.326-0.416-4.996
	c-1.275-5.731-0.277-12.291-2.283-17.037c-1.701-4.027-5.037-4.226-7.066-7.271c-1.063-1.605-1.363-4.064-2.703-5.402
	c-1.745-1.745-5.479-1.868-8.937-1.874c-1.372,1.734-7.896,3.607-10.182,4.993c-5.299,3.192-10.02,6.91-15.587,9.969v0.211h0.205
	c2.439,1.895,8.407,0.462,11.025-0.211c1.115-0.291,2.471-0.058,3.318-0.62h0.212c-0.481,1.729-3.057,5.743-4.368,6.646
	c-1.769,1.22-4.169,1.597-5.191,3.532c-1.215,2.293-0.337,7.32-1.664,9.355c0.152,1.937,2.198,2.295,3.115,3.532
	c1.68-0.291,2.672-1.525,4.161-1.868c0.754,0.137,1.521,0.277,2.276,0.415v0.206c2.185,2.854-2.639,6.223-3.942,7.273
	c-5.437,4.382-17.941,8.307-19.946,15.379h-0.415c-1.767-1.964-2.706-4.312-3.332-7.48c-0.374-1.905,1.127-3.517,1.248-4.984
	c0.108-1.352-2.73-6.616-3.533-7.273c-0.609-0.525-1.739,1.083-2.074,1.656c-1.556,2.651-1.651,6.927-2.911,9.774
	c-0.841,1.889-2.222,3.701-2.909,5.817c-0.719,2.197,0.242,4.252-0.416,6.65c-1.41,5.044-2.671,9.892-3.955,15.373
	c-1.479,6.357,3.663,14.297,9.564,12.68c2.89-0.789,4.478-2.93,7.071-4.156c0.607-2.324,1.261-4.922,1.866-7.48
	c0.277-1.174-0.14-2.816,0.411-3.742v-2.285c0.824,0.227,1.417,0.838,2.082,1.035c3.485,1.045,7.031-4.929,8.307-6.643
	c0.935-1.252,2.404-2.27,3.331-3.535c0.978-1.335,1.801-3.395,3.115-4.368c0.758-0.555,1.832-0.79,2.494-1.454
	c0.699-0.693,0.915-1.846,1.46-2.7c1.054-1.675,2.571-4.028,4.154-5.19c1.369-1.025,3.399-1.761,5.188-2.288
	c0.814-0.244,1.505-0.029,2.084-0.415c1.202,0.073,1.288,0.415,2.078,0.827c-0.482,2.636-5.598,6.911-8.11,7.693
	c-1.39,0.43-3.476-0.439-4.568,0.205c-4.243,1.456-2.357,10.427,0.206,12.259c0.834,0.598,2.363,0.271,3.329,0.828
	c2.26-0.256,2.825-2.865,4.364-3.949c-0.217-2.075-2.908-5.211-2.706-6.232c0.319-1.602,2.568-3.063,3.738-3.943
	c1.047-0.783,2.04-1.949,3.124-2.705c2.338-1.648,4.805-2.824,7.271-4.364c1.043-0.644,1.95-1.529,3.322-1.866
	c0.095-0.428,0.207-0.951,0.418-1.25c-0.305-3.959-9.471-8.586-13.304-4.988c-0.976-0.129-1.233-0.431-1.862-0.835
	c0.51-3.83,2.474-10.313-1.038-12.258c0.11-3.039,1.575-4.672,2.489-6.856c0.316-0.753,0.217-1.658,0.626-2.284
	c-0.107-1.835-2.503-3.79-3.742-4.574c0.493-0.807,4.297-1.798,5.404-2.288c4.385-1.923,9.532-4.603,14.544-1.249
	c1.021,0.688,1.98,1.351,2.498,2.5c2.256,5.027,0.711,12.64,2.279,18.49c1.576,5.834,3.5,12.056,5.199,18.085
	c1.037,5.397,2.08,10.802,3.119,16.206c0.484,4.154,0.969,8.313,1.453,12.471c0.453,2.051-0.559,5.191,0.41,6.855
	c-0.088,1.67-0.473,3.715,1.049,3.949c0.508,2.205,0.678,6.309-0.631,8.311v0.209c-0.57-0.219-0.887-0.621-1.248-1.039
	c-2.012,0.1-3.039,1.775-4.984,1.459c-4.551-0.744-8.021-2.988-11.641-4.58c-1.639-0.721-3.785-1.016-5.19-2.068
	c-0.152-0.271,0.083-0.674,0.204-1.252c-1.492-1.145-3.023-3.105-5.186-3.531c-0.558-0.107-1.294,0.344-1.67,0.416
	c-2.174,0.428-4.5-1.057-4.983-2.494c-1.018-1.582,1.771-5.377,2.489-6.234c-0.237-1.252-1.036-1.445-1.863-2.078
	c-2.609-1.971-3.84-3.899-8.937-2.909c-1.127,0.215-1.969-0.455-2.714,0c-1.169,0.473-1.119,1.825-1.863,2.704
	c0.659,2.039,2.846,3.121,3.531,4.986c0.419,2.838,0.83,5.682,1.258,8.523c0.983,3.029,3.132,4.428,5.807,5.809
	c2.356,1.225,6.396,3.068,8.316,0.209c5.546,0.299,11.75,5.48,16.004,7.699c1.488,0.77,3.43,1.385,4.98,1.865
	c1.201,0.367,2.746,0.029,3.746,0.625h3.318c1.738-0.781,2.547-4.27,3.119-6.443c1.299-4.922,0.625-12.354,0.625-18.287
	C326.463,91.361,327.16,88.348,326.463,85.229 M265.363,79.82h-0.414c0.078-4.101,3.26-4.643,5.403-6.647h0.626
	C269.992,75.928,266.885,77.536,265.363,79.82"/>
<g>
	<path fill="#F39800" d="M340.66,62.014c0.5-0.931,0.895-1.468,1.182-1.613c0.287-0.143,0.609-0.07,0.969,0.216
		c0.285,0.287,0.914,0.448,1.883,0.483c0.967,0.037,2.383,0.269,4.248,0.699c1.504,0.431,2.527,0.968,3.064,1.613
		c0.537,0.645,1.199,2.295,1.988,4.947c0.574,1.793,0.789,3.191,0.646,4.194c-0.145,1.004-0.754,2.115-1.828,3.334
		c-0.646,0.645-0.969,1.113-0.969,1.398c0,0.359-0.682,0.897-2.043,1.613c-1.363,0.717-2.438,1.075-3.227,1.075
		c-1.076,0-1.793,0.181-2.15,0.538c-0.502,0.502-1.451,0.307-2.85-0.592c-1.398-0.895-2.35-1.882-2.85-2.957
		c-0.574-1.147-0.826-3.155-0.754-6.023c0.07-2.866,0.395-4.839,0.969-5.915C339.369,64.237,339.943,63.234,340.66,62.014z"/>
	<path fill="#F39800" d="M415.4,31.364c1.506-0.86,2.867-1.218,4.088-1.075c2.795,0.287,5.752,1.004,8.871,2.151
		c3.119,1.147,4.678,2.042,4.678,2.688c0,0.43,0.215,0.968,0.646,1.613c0.5,0.789,0.465,1.417-0.109,1.882
		c-0.574,0.467-1.719,0.915-3.439,1.344c-2.01,0.43-4.59,1.166-7.744,2.205c-3.154,1.04-6.094,1.955-8.818,2.743
		c-3.801,1.147-6.238,2.366-7.313,3.656c-0.359,0.36-1.65,1.436-3.871,3.227c-5.162,4.016-8.98,8.119-11.453,12.313
		c-2.475,4.194-3.354,8.084-2.635,11.668c0.357,1.936,0.607,2.976,0.752,3.119c0.07,0.073,1.971-0.842,5.699-2.742
		c3.729-1.898,5.771-2.992,6.131-3.28c0.285-0.285,0.895-1.971,1.828-5.054c0.932-3.082,1.416-6.596,1.451-10.54
		c0.035-3.941,0.305-6.092,0.807-6.452c0.574-0.358,0.969-0.484,1.184-0.376c0.215,0.107,0.43,0.448,0.645,1.021
		c0.215,0.717,0.662,1.398,1.346,2.043c0.68,0.645,1.164,2.08,1.451,4.302c0.357,2.796,0.752,4.194,1.182,4.194
		c0.145,0,0.359-0.178,0.646-0.538c0.43-0.573,0.68-0.788,0.754-0.645c0.07,0.287-0.217,1.004-0.861,2.151
		c-0.646,1.147-1.006,2.366-1.076,3.656c0,0.933,0.055,1.47,0.162,1.613c0.107,0.145,0.484,0.073,1.129-0.214
		c2.221-0.86,3.674-1.829,4.355-2.904c0.682-1.075,1.021-2.975,1.021-5.7c0-3.154-0.717-3.834-2.15-2.043
		c-0.934,1.148-1.363,1.47-1.291,0.968c0.07-0.43,0.537-1.326,1.398-2.688c0.715-1.146,1.271-1.882,1.666-2.205
		c0.395-0.323,0.914-0.484,1.561-0.484c0.645,0,1.109,0.145,1.398,0.43c0.285,0.287,0.68,0.968,1.182,2.043
		c0.717,1.65,1.219,2.78,1.506,3.388c0.285,0.611,0.43,1.452,0.43,2.527c0,0.861,0.217,1.344,0.646,1.452s1.469-0.125,3.117-0.699
		c1.506-0.573,3.621-1.039,6.346-1.399c1.865-0.214,3.209-0.285,4.033-0.214c0.822,0.072,2.025,0.359,3.604,0.86
		c1.936,0.645,3.387,1.327,4.354,2.043c0.969,0.717,1.703,1.72,2.205,3.011s0.717,2.564,0.646,3.817
		c-0.072,1.255-0.539,3.855-1.398,7.797c-1.076,4.661-1.613,7.385-1.613,8.173c0,0.79-0.322,1.92-0.967,3.389
		c-0.646,1.469-1.221,2.814-1.723,4.031c-0.574,1.578-1.523,3.676-2.85,6.293s-2.277,4.211-2.85,4.785
		c-0.645,0.715-0.967,1.217-0.967,1.504c0,0.359-0.664,0.771-1.99,1.236c-1.328,0.467-2.277,0.629-2.85,0.486
		c-0.791-0.217-1.92-0.988-3.389-2.313c-1.471-1.328-2.564-2.115-3.279-2.367c-0.717-0.252-1.273-0.787-1.666-1.613
		c-0.396-0.822-0.807-1.236-1.238-1.236c-0.43,0-1.146-0.607-2.15-1.828c-0.789-1.004-1.631-1.594-2.527-1.773
		c-0.896-0.178-2.17-0.018-3.818,0.484c-1.219,0.359-3.225,0.682-6.021,0.967c-3.012,0.359-5.037,0.215-6.076-0.43
		c-1.041-0.646-1.488-2.043-1.344-4.195c0-1.145,0.447-1.988,1.344-2.527c0.896-0.537,1.398-0.84,1.506-0.914
		c0.107-0.07,0.016-0.43-0.27-1.074c-1.436-2.653-2.402-4.84-2.904-6.56c-0.215-0.646-0.07-1.649,0.432-3.012
		c0.07-0.358,0.16-0.699,0.268-1.022c0.109-0.322,0.18-0.573,0.217-0.753c0.035-0.178,0.016-0.269-0.055-0.269
		c-0.215,0-1.221,0.521-3.012,1.56c-1.793,1.041-3.084,1.846-3.871,2.419c-1.363,1.076-2.133,2.044-2.313,2.903
		c-0.18,0.861-0.018,2.69,0.484,5.485c0.572,3.371,1.021,5.252,1.344,5.646s0.592,1.381,0.807,2.957
		c0.287,2.223-0.18,3.479-1.398,3.764c-1.219,0.287-2.725-0.43-4.516-2.15c-1.721-1.791-3.227-4.518-4.518-8.172
		c-0.215-0.574-0.502-0.861-0.859-0.861c-0.361,0-0.539-0.322-0.539-0.969c0-0.645-0.18-1.129-0.537-1.451
		c-0.359-0.322-0.359-1.451,0-3.387l0.43-1.829l0.107,0.108c0,1.074,0.215,1.577,0.646,1.505c0.215,0,0.322-0.286,0.322-0.86
		c0-0.93-0.055-2.06-0.162-3.388c-0.105-1.326-0.252-2.436-0.43-3.333c-0.18-0.895-0.305-1.307-0.377-1.237
		c-0.502,0.288-0.393-1.576,0.324-5.592c0.07-0.573,0.178-1.146,0.322-1.72c0.572-2.796,1.521-5.251,2.85-7.367
		c1.326-2.114,3.531-4.713,6.613-7.797c3.873-3.799,6.488-6.237,7.852-7.313l2.043-1.613l-2.043-2.043
		c-1.148-1.146-2.26-2.651-3.334-4.517c-1.076-1.864-1.613-3.189-1.613-3.979c0-0.861,0.197-1.595,0.592-2.205
		c0.393-0.608,0.842-0.914,1.344-0.914c0.646,0,1.469,0.682,2.475,2.042c1.504,2.081,3.225,2.904,5.16,2.473
		c1.291-0.285,3.299-0.93,6.023-1.935C412.318,32.727,414.254,31.939,415.4,31.364z M380.557,79.006
		c0.07-0.358,0.143-0.573,0.215-0.646c0.215,0.43,0.215,0.861,0,1.291C380.699,79.581,380.627,79.366,380.557,79.006z
		 M411.959,88.686c-0.574-0.502-0.951-0.717-1.129-0.646c-0.18,0.072-0.592,0.537-1.236,1.398c-0.719,1.076-1.328,1.613-1.828,1.613
		c-0.504,0-0.754,0.18-0.754,0.537c0,0.359,0.25,0.449,0.754,0.27c0.5-0.178,1.469-0.447,2.902-0.807
		c1.148-0.357,1.811-0.68,1.99-0.969C412.836,89.797,412.605,89.33,411.959,88.686z M409.541,84.329
		c-0.469-0.753-0.807-1.11-1.023-1.075c-0.215,0.037-0.395,0.557-0.537,1.561c-0.145,0.789-0.09,1.272,0.162,1.451
		c0.25,0.18,0.699,0.053,1.344-0.377C409.986,85.603,410.006,85.082,409.541,84.329z M416.369,74.435
		c-0.359-0.608-0.699-1.379-1.021-2.313c-0.324-0.931-0.629-1.397-0.914-1.397c-1.006,0.214-1.973,0.52-2.904,0.914
		c-0.932,0.395-1.471,0.771-1.613,1.129c-0.287,0.503-0.502,2.116-0.645,4.839c-0.145,1.936-0.162,3.156-0.055,3.657
		c0.107,0.503,0.484,1.075,1.129,1.721l1.398,1.397l2.689-1.827c3.01-2.151,4.551-3.478,4.623-3.979
		c0-0.358-0.359-0.752-1.074-1.183c-0.719-0.501-1.076-0.968-1.076-1.398C416.906,75.564,416.727,75.045,416.369,74.435z
		 M437.77,64.38c-0.859-0.5-2.51-0.465-4.947,0.108c-1.361,0.359-2.35,0.467-2.957,0.322c-0.609-0.143-0.914-0.108-0.914,0.107
		c0,0.215-0.896,0.61-2.688,1.183c-1.793,0.646-2.924,1.29-3.389,1.936c-0.467,0.645-0.699,1.792-0.699,3.441
		c0,1.148,0.055,1.919,0.162,2.312c0.107,0.396,0.375,0.664,0.807,0.807c0.715,0.214,1.219,0.214,1.506,0
		c0.43-0.215,1.252-0.089,2.473,0.376c1.219,0.467,2.078,0.985,2.58,1.559c0.502,0.502,0.734,0.86,0.699,1.075
		c-0.035,0.216-0.377,0.61-1.021,1.183c-1.004,0.791-2.6,1.31-4.785,1.559c-2.188,0.253-3.711,0.683-4.57,1.291
		c-0.861,0.61-1.633,1.021-2.313,1.237c-0.682,0.215-1.559,0.753-2.635,1.612l-1.506,1.291l1.721,1.614
		c1.146,1.074,2.078,1.471,2.797,1.182c1.291-0.43,2.902-0.482,4.838-0.16s3.766,0.986,5.486,1.99
		c0.143,0.072,0.59-0.609,1.344-2.043c0.752-1.434,1.521-2.941,2.313-4.518c0.787-1.576,1.182-2.544,1.182-2.903
		c0.072-0.431,0.27-0.896,0.592-1.398c0.324-0.501,0.52-0.949,0.592-1.344c0.07-0.394,0.646-2.097,1.721-5.108
		C438.092,67.858,438.631,64.955,437.77,64.38z"/>
	<path fill="#F39800" d="M532.836,12.975c0.217-0.358,0.574-0.43,1.076-0.215c0.5,0.215,0.949,0.323,1.344,0.323
		s1.166,0.502,2.313,1.505c1.004,0.933,1.811,2.098,2.42,3.496c0.607,1.398,0.914,2.707,0.914,3.925
		c0,0.646,0.107,1.112,0.322,1.398c0.215,0.287,0.645,0.575,1.291,0.86c2.295,1.005,3.619,2.366,3.979,4.086
		c0.215,0.718,0.018,1.201-0.59,1.452c-0.611,0.252-1.955,0.377-4.035,0.377c-1.361,0-2.275,0.107-2.74,0.323
		c-0.467,0.215-1.273,0.932-2.42,2.15c-2.008,2.151-4.125,3.764-6.346,4.839c-0.645,0.36-1.363,0.825-2.15,1.398l-1.184,0.968
		l1.398,2.366c0.789,1.436,1.469,2.403,2.043,2.904c0.574,0.502,1.291,0.752,2.15,0.752c0.789,0,1.756,0.467,2.904,1.398
		c0.717,0.645,1.146,1.112,1.291,1.398c0.143,0.288,0.07,0.717-0.215,1.291c-0.432,0.86-0.934,1.291-1.506,1.291
		c-1.721,0-2.582,0.43-2.582,1.29c0,0.503,0.717,2.259,2.152,5.27c2.078,4.231,3.549,7.851,4.408,10.862
		c0.357,1.362,0.824,2.295,1.398,2.796c0.357,0.36,0.662,0.43,0.914,0.215c0.25-0.215,0.77-0.931,1.559-2.151
		c1.219-1.791,1.936-3.207,2.152-4.247c0.215-1.039,0.465-1.738,0.752-2.097c0.285-0.358,0.43-0.681,0.43-0.968
		c-0.145-0.646-0.107-1.093,0.107-1.344c0.215-0.25,0.555-0.305,1.021-0.163c0.467,0.145,1.021,0.468,1.668,0.968
		c0.932,0.861,1.344,2.044,1.236,3.549c-0.107,1.506-0.807,3.622-2.098,6.346c-1.289,2.94-2.115,4.696-2.473,5.27
		c-0.43,0.86-0.449,1.9-0.055,3.118c0.395,1.22,1.346,2.834,2.85,4.841c0.717,1.004,1.184,1.973,1.398,2.903
		c0.432,1.793,1.076,1.148,1.938-1.936c0.572-1.936,1.234-4.05,1.988-6.345c0.752-2.294,1.326-4.337,1.721-6.13
		c0.393-1.791,0.914-3.674,1.561-5.646c0.645-1.971,1.037-3.351,1.182-4.141c0.215-1.003,0.393-1.469,0.537-1.398
		c0.145,0.145,0.215,0.645,0.215,1.505c0,1.22,0.162,1.829,0.484,1.829s0.412,0.933,0.27,2.795
		c-0.145,1.435-0.252,2.654-0.322,3.657c-0.072,1.005-0.107,1.829-0.107,2.474c0,0.646,0.018,1.129,0.053,1.452
		c0.035,0.322,0.09,0.484,0.162,0.484c0.357,0,0.484,0.609,0.377,1.828c-0.109,1.22-0.055,2.008,0.16,2.366
		c0.285,0.502,0.143,2.223-0.43,5.162c-0.072,0.574,0,0.859,0.215,0.859s0.357,0.396,0.43,1.184c0.07,1.363,0.18,2.313,0.324,2.85
		c0.143,0.537,0.322,0.771,0.537,0.699c0.357,0,0.484,0.342,0.377,1.021c-0.109,0.684,0,1.129,0.322,1.344
		c0.322,0.217,0.393,0.521,0.215,0.914c-0.18,0.396,0.232,1.99,1.236,4.787c2.006,5.734,3.082,9.855,3.227,12.367
		c0.07,1.074,0.035,1.828-0.107,2.258c-0.145,0.432-0.537,0.969-1.184,1.613c-0.645,0.645-1.166,1.039-1.559,1.184
		c-0.396,0.143-1.021,0.143-1.883,0c-1.148-0.145-2.385-0.611-3.709-1.4c-1.328-0.787-2.17-1.541-2.529-2.258
		c-0.359-0.645-0.752-1.182-1.182-1.611c-0.43-0.502-0.986-1.346-1.668-2.529c-0.682-1.182-1.094-2.096-1.236-2.742
		c-0.215-0.859-1.074-2.078-2.58-3.654c-1.076-1.076-1.705-1.793-1.883-2.152c-0.18-0.357-0.127-0.822,0.162-1.398
		c0.5-0.787,0.555-1.379,0.16-1.773c-0.395-0.393-0.59-0.877-0.59-1.451c0-0.502-0.254-1.254-0.754-2.26
		c-0.502-1.002-1.041-1.863-1.613-2.58c-0.43-0.502-0.699-1.076-0.807-1.721c-0.107-0.646-0.412-1.506-0.914-2.582l-0.752-1.721
		l-0.861,1.397c-1.721,2.797-3.656,4.625-5.807,5.485c-1.148,0.504-1.721,0.986-1.721,1.453s0.842,1.076,2.527,1.828
		c1.684,0.752,2.742,1.381,3.172,1.881c0.572,0.646,0.699,1.346,0.377,2.098c-0.322,0.754-0.914,1.311-1.775,1.668
		c-3.801,1.576-6.559,2.508-8.281,2.795c-1.074,0.143-1.719,0.287-1.936,0.43c-0.357,0.215-2.455,0.627-6.289,1.236
		c-3.838,0.609-5.863,0.842-6.076,0.699c-0.361-0.215-1.203-0.357-2.529-0.43s-2.455-0.305-3.387-0.699s-1.543-0.592-1.828-0.592
		c-0.287,0-0.699-0.662-1.236-1.988s-0.844-2.383-0.914-3.174c-0.072-0.93-0.234-1.611-0.484-2.043
		c-0.252-0.43-0.234-1.074,0.053-1.936c0.502-1.217,1.076-4.156,1.721-8.819c0.646-4.659,0.824-7.205,0.539-7.635
		c-0.072-0.071-0.145-0.089-0.215-0.054c-0.072,0.038-0.18,0.108-0.324,0.215c-0.143,0.108-0.287,0.27-0.43,0.484
		c-0.574,1.076-1.326,2.599-2.258,4.571c-0.934,1.972-1.398,3.064-1.398,3.281c0,0.287-0.482,1.361-1.451,3.225
		c-0.969,1.865-1.453,3.012-1.453,3.441c0,0.287-1.146,2.689-3.439,7.205c-2.297,4.518-4.018,7.852-5.162,10.002
		c-0.646,1.076-1.256,1.703-1.828,1.883c-0.576,0.178-1.076,0.699-1.506,1.561c-0.789,1.504-1.813,2.525-3.066,3.064
		c-1.254,0.537-2.42,0.445-3.494-0.27c-0.502-0.359-1.148-1.273-1.936-2.742c-0.791-1.471-1.184-2.527-1.184-3.174
		c0-0.43,0.393-0.789,1.184-1.074c0.787-0.359,1.811-1.221,3.064-2.582s2.42-2.867,3.496-4.516c1.217-2.006,2.221-3.691,3.01-5.055
		c0.861-1.291,1.291-2.006,1.291-2.15c0-0.217,0.662-1.631,1.99-4.248c1.326-2.617,2.059-3.996,2.203-4.141
		c0.217-0.143,0.789-1.219,1.721-3.227l1.506-3.011l-2.795,1.505c-1.436,0.791-2.475,1.613-3.119,2.475
		c-0.645,0.86-1.543,2.618-2.689,5.27c-0.359,0.789-0.682,1.434-0.967,1.934c-0.287,0.504-1.221,2.332-2.797,5.486
		c-1.219,2.51-2.33,4.355-3.334,5.537c-1.004,1.184-1.828,1.668-2.473,1.453c-0.576-0.215-1.166-1.076-1.775-2.582
		c-0.609-1.504-0.912-2.795-0.912-3.871c0-1.432,0.105-2.15,0.322-2.15c0.357,0,1.291-0.914,2.795-2.742
		c1.506-1.828,2.33-3.029,2.473-3.604c0.145-0.5,0.145-0.859,0-1.076c-0.143-0.213-0.537-0.465-1.182-0.752
		c-1.221-0.572-1.668-1.452-1.344-2.634c0.322-1.184,1.307-2.348,2.957-3.495c5.305-3.441,6.883-5.125,4.732-5.054
		c-0.217,0-0.539,0.037-0.969,0.107c-0.789,0.145-1.328,0.161-1.613,0.054c-0.287-0.108-0.537-0.377-0.752-0.807
		c-0.504-0.789-0.699-1.721-0.592-2.796c0.107-1.075,0.41-1.684,0.914-1.828c0.645-0.215,1.576-0.931,2.795-2.151
		c1.219-1.217,2.223-2.436,3.012-3.656c0.861-1.29,1.076-2.078,0.645-2.366c-0.574-0.358-0.662-0.984-0.268-1.882
		c0.393-0.895,0.984-1.344,1.775-1.344c1.934,0,3.225,0.79,3.871,2.365c0.285,0.646,0.393,1.183,0.322,1.613
		c-0.072,0.43-0.396,1.184-0.969,2.259c-0.789,1.363-1.074,2.08-0.859,2.151c0.07,0,0.215-0.071,0.43-0.215
		c0.859-0.43,1.936-0.663,3.227-0.699c1.289-0.036,2.113,0.126,2.473,0.483c0.574,0.575,0.789,1.094,0.646,1.56
		c-0.145,0.468-0.754,1.059-1.83,1.775c-1.289,0.932-1.934,1.542-1.934,1.828c0,0.287-0.289,0.43-0.861,0.43
		c-0.932,0-2.42,0.682-4.463,2.043c-2.043,1.362-3.064,2.33-3.064,2.903c0,0.073,0.07,0.126,0.215,0.162
		c0.143,0.037,0.322,0.037,0.537,0c0.215-0.036,0.43-0.089,0.645-0.162c2.223-0.645,4.158-0.393,5.809,0.753
		c0.645,0.359,1.057,0.537,1.236,0.537c0.178,0,0.412-0.214,0.699-0.645c0.43-0.646,0.645-1.146,0.645-1.506
		c0-0.215,1.146-2.616,3.441-7.205c2.295-4.588,3.979-7.851,5.055-9.786c0.932-1.506,1.398-2.366,1.398-2.582
		s-0.682-0.25-2.043-0.107c-1.148,0.215-2.17,0.234-3.066,0.054c-0.896-0.178-1.344-0.484-1.344-0.914
		c0-0.216-0.018-0.376-0.053-0.484c-0.037-0.108-0.127-0.161-0.27-0.161c-0.145,0.072-0.287,0.018-0.43-0.162
		c-0.145-0.178-0.215-0.376-0.215-0.592c0.07-0.07,0.178-0.716,0.322-1.935c0.143-1.29,0.412-2.222,0.807-2.796
		c0.393-0.573,0.984-0.968,1.773-1.183c0.574-0.071,2.42-1.076,5.539-3.012s4.893-3.154,5.322-3.656
		c0.145-0.215,0.969-0.86,2.475-1.936c1.791-1.218,3.619-2.616,5.484-4.194c1.863-1.576,3.352-2.958,4.463-4.14
		c1.111-1.184,1.596-1.846,1.451-1.989c-0.287-0.286-1.416-0.216-3.387,0.214c-1.973,0.43-4.178,0.844-6.613,1.237
		c-2.439,0.396-3.693,0.861-3.766,1.398c-0.07,0.537-0.322,2.061-0.752,4.57c-0.502,2.869-1.111,4.57-1.828,5.108
		c-0.717,0.538-1.793,0.09-3.227-1.345c-1.074-1.146-1.721-2.401-1.936-3.764c-0.215-1.219-0.555-1.953-1.021-2.205
		c-0.467-0.251-1.451-0.231-2.957,0.054c-1.363,0.288-2.42,0.233-3.174-0.161c-0.752-0.394-1.559-1.38-2.418-2.958
		c-0.934-1.72-1.131-3.011-0.592-3.871c0.537-0.86,1.521-0.896,2.957-0.107c0.789,0.43,2.365,0.322,4.732-0.323l3.656-0.967
		l0.537-2.258c0.574-2.939,0.502-6.022-0.215-9.249l-0.215-0.86c0-0.143,0.016-0.269,0.053-0.377
		c0.035-0.107,0.09-0.143,0.162-0.107c0.07,0.037,0.215,0.054,0.43,0.054c0.502,0.215,0.754,0.501,0.754,0.86
		c0,0.359,0.322,0.79,0.967,1.291c1.434,1.22,2.367,3.119,2.797,5.7c0.285,1.936,0.572,2.995,0.859,3.172
		c0.285,0.181,1.326-0.017,3.119-0.591c2.15-0.573,4.713-1.2,7.689-1.882c2.975-0.681,4.855-1.022,5.646-1.022
		c0.859,0,1.646-0.231,2.365-0.699c0.715-0.466,1.326-0.699,1.828-0.699c0.646,0,1.004-0.646,1.076-1.936
		c0.07-1.291-0.18-2.544-0.754-3.764c-0.43-0.86-0.807-1.434-1.129-1.721c-0.322-0.286-0.697-0.43-1.129-0.43
		C533.088,13.442,532.766,13.262,532.836,12.975z M478.637,109.656c-0.361,0-0.539-0.254-0.539-0.756c0-0.5,0.178-0.75,0.539-0.75
		c0.357,0,0.537,0.25,0.537,0.75C479.174,109.402,478.994,109.656,478.637,109.656z M519.555,67.499
		c-1.254,0.36-2.385,0.43-3.387,0.216c-1.004-0.216-1.828-0.717-2.473-1.506l-0.969-1.183l-1.936,3.979
		c-0.861,1.721-1.363,2.833-1.506,3.334c-0.145,0.502-0.037,0.896,0.322,1.183c2.221,1.65,2.689,6.274,1.398,13.874
		c-0.359,2.223-0.609,4.518-0.752,6.883c-0.072,1.65-0.072,2.652,0,3.012c0.07,0.359,0.357,0.574,0.859,0.645
		c1.791,0.145,2.975-0.035,3.549-0.537c-0.359-0.574-0.521-1.453-0.484-2.637c0.035-1.182,0.232-1.988,0.592-2.418
		s0.52-0.682,0.484-0.754c-0.037-0.07-0.27-0.107-0.699-0.107c-0.645,0-1.094-0.393-1.344-1.184
		c-0.252-0.787-0.27-1.756-0.055-2.902c0.215-1.077,1.254-2.187,3.119-3.334c1.506-0.931,3.047-2.098,4.625-3.494
		c1.576-1.399,2.365-2.313,2.365-2.743c0-0.574-1.076-0.143-3.227,1.29c-0.645,0.43-1.146,0.825-1.506,1.183
		c-0.789,0.717-1.578,0.968-2.365,0.752c-0.791-0.215-1.256-0.823-1.398-1.828c-0.215-0.931-0.018-2.043,0.592-3.333
		c0.607-1.291,1.379-2.241,2.313-2.85c0.93-0.608,1.576-1.093,1.936-1.452c0.43-0.43,0.932-1.219,1.506-2.366
		c0.572-1.146,0.787-1.791,0.645-1.936C521.545,67.068,520.809,67.141,519.555,67.499z M526.385,41.796
		c-0.217-0.573-0.43-0.86-0.646-0.86c-0.43,0.073-2.078,1.059-4.945,2.958c-2.869,1.9-4.805,3.317-5.809,4.248
		c-0.43,0.43-1.451,1.094-3.064,1.989c-1.613,0.897-2.42,1.488-2.42,1.775c0,0.145,0.07,0.252,0.215,0.322
		c0.145,0.072,0.322,0.054,0.539-0.054c0.215-0.106,0.357-0.231,0.43-0.375c0.215-0.286,0.842-0.555,1.883-0.807
		c1.037-0.25,2.238-0.914,3.602-1.99c1.361-1.075,2.563-1.72,3.604-1.936c1.037-0.215,1.736-0.554,2.096-1.021
		c0.357-0.465,0.807-0.699,1.344-0.699c0.539,0,0.574-0.124,0.109-0.376c-0.469-0.25-0.307-0.501,0.482-0.753
		c0.789-0.25,1.469-0.376,2.043-0.376C526.777,43.984,526.957,43.301,526.385,41.796z M530.793,56.099
		c-0.859-1.936-1.506-3.1-1.936-3.495c-0.43-0.393-1.004-0.339-1.721,0.163c-0.502,0.287-1.146,0.43-1.936,0.43
		c-1.148,0-2.707,0.575-4.678,1.72c-1.973,1.148-3.459,2.331-4.463,3.549c-1.291,1.578-2.043,2.618-2.258,3.118
		c-0.145,0.503,0.016,0.952,0.484,1.345c0.465,0.395,1.074,0.591,1.826,0.591c0.754,0,2.133-0.412,4.141-1.237
		c2.008-0.823,3.297-1.487,3.873-1.989c0.43-0.501,1.504-0.716,3.225-0.645c3.441,0.144,5.162,0.897,5.162,2.258
		c0,0.86-0.072,1.381-0.215,1.559c-0.145,0.18-0.537,0.269-1.182,0.269c-0.861,0-1.975,0.252-3.334,0.753
		c-0.934,0.287-1.506,0.537-1.721,0.752c-0.217,0.216-0.254,0.575-0.107,1.076c0.213,0.79,0.393,1.721,0.537,2.796
		c0.215,0.86,0.484,1.452,0.807,1.774c0.322,0.323,0.877,0.484,1.666,0.484c0.574,0,1.236,0.36,1.99,1.076
		c0.752,0.718,1.129,1.362,1.129,1.936c0,0.575-0.574,1.577-1.721,3.011c-1.146,1.435-2.295,2.545-3.441,3.333
		c-1.793,1.506-2.15,2.295-1.076,2.366c0.574,0,1.361,0.413,2.367,1.236c1.004,0.825,1.434,1.417,1.291,1.775
		c-0.072,0.286-0.861,0.825-2.367,1.613c-0.932,0.43-1.543,0.824-1.828,1.182c-0.287,0.361-0.502,0.898-0.645,1.615
		c-0.145,1.146-0.072,2.043,0.215,2.688c0.215,0.502,0.43,0.771,0.645,0.807c0.215,0.037,0.789-0.125,1.723-0.484
		c1.217-0.5,1.826-0.895,1.826-1.182c0-0.285,0.324-0.43,0.969-0.43c0.646,0,1.076-0.162,1.291-0.486
		c0.215-0.322,0.143-0.482-0.215-0.482c-0.361,0-0.539-0.305-0.539-0.914s-0.145-1.021-0.43-1.236
		c-0.287-0.217-0.27-0.969,0.053-2.26c0.324-1.289,0.699-1.936,1.131-1.936c0.43,0,1.559-0.984,3.387-2.957
		c1.828-1.97,2.885-3.315,3.172-4.033c0.359-0.86,0.162-2.24-0.592-4.14c-0.752-1.899-1.719-4.642-2.902-8.228
		C533.213,61.656,532.012,58.61,530.793,56.099z"/>
</g>
</svg>
