<?xml version="1.0" standalone="no"?><!DOCTYPE svg PUBLIC "-//W3C//DTD SVG 1.1//EN" "http://www.w3.org/Graphics/SVG/1.1/DTD/svg11.dtd"><svg t="1602731307053" class="icon" viewBox="0 0 1024 1024" version="1.1" xmlns="http://www.w3.org/2000/svg" p-id="2517" xmlns:xlink="http://www.w3.org/1999/xlink" width="32" height="32"><defs><style type="text/css"></style></defs><path d="M283.529495 195.631586l673.725358 0 0 102.523001-673.725358 0 0-102.523001ZM109.972671 195.631586l10.252505 0c25.484418 0 46.13576 20.651342 46.13576 46.13576l0 10.252505c0 25.484418-20.651342 46.13576-46.13576 46.13576l-10.252505 0c-25.484418 0-46.13576-20.651342-46.13576-46.13576l0-10.252505C63.836911 216.282928 84.488253 195.631586 109.972671 195.631586zM283.529495 459.262892l673.725358 0 0 102.523001-673.725358 0 0-102.523001ZM109.972671 459.262892l10.252505 0c25.484418 0 46.13576 20.651342 46.13576 46.13576l0 10.252505c0 25.484418-20.651342 46.13576-46.13576 46.13576l-10.252505 0c-25.484418 0-46.13576-20.651342-46.13576-46.13576l0-10.252505C63.836911 479.914234 84.488253 459.262892 109.972671 459.262892zM283.529495 722.895221l673.725358 0 0 102.523001-673.725358 0 0-102.523001ZM109.972671 722.895221l10.252505 0c25.484418 0 46.13576 20.651342 46.13576 46.13576l0 10.252505c0 25.484418-20.651342 46.13576-46.13576 46.13576l-10.252505 0c-25.484418 0-46.13576-20.651342-46.13576-46.13576l0-10.252505C63.836911 743.546563 84.488253 722.895221 109.972671 722.895221z" p-id="2518" fill="#dbdbdb"></path></svg>